<svg width="33" height="30" viewBox="0 0 33 30" fill="none" xmlns="http://www.w3.org/2000/svg">
<ellipse cx="17.0998" cy="14.7004" rx="12.3" ry="9.3" fill="#EEEEEE"/>
<path d="M16.5366 0C7.22008 0 0 6.19024 0 14.5513C0 18.9246 1.97667 22.7038 5.19417 25.3144C5.74972 25.7687 5.63528 26.0318 5.72976 28.8366C5.7372 29.033 5.7974 29.2248 5.9051 29.3953C6.01281 29.5657 6.16476 29.7097 6.34769 29.8145C6.53062 29.9193 6.73898 29.9818 6.95459 29.9966C7.1702 30.0114 7.38652 29.978 7.58468 29.8993C11.1049 28.49 11.1501 28.3787 11.7469 28.5263C21.9457 31.0782 33 25.1444 33 14.5513C33 6.19024 25.8538 0 16.5366 0ZM26.4659 11.198L21.609 18.1884C21.4256 18.4513 21.1845 18.6769 20.9007 18.8511C20.6169 19.0252 20.2966 19.1443 19.9599 19.2006C19.6231 19.257 19.2772 19.2496 18.9438 19.1788C18.6104 19.1079 18.2966 18.9753 18.0223 18.7891L14.1581 16.1597C13.9853 16.0419 13.7752 15.9782 13.5593 15.9782C13.3433 15.9782 13.1332 16.0419 12.9605 16.1597L7.74635 19.755C7.05042 20.2347 6.13893 19.4768 6.60798 18.8072L11.4648 11.8167C11.6482 11.5538 11.8893 11.3281 12.1731 11.1539C12.4569 10.9797 12.7772 10.8606 13.1139 10.8042C13.4507 10.7478 13.7966 10.7553 14.1301 10.8262C14.4635 10.8971 14.7772 11.0298 15.0516 11.2161L18.9145 13.8449C19.0872 13.9626 19.2973 14.0263 19.5132 14.0263C19.7292 14.0263 19.9393 13.9626 20.112 13.8449L25.3288 10.2531C26.0234 9.77046 26.9349 10.5278 26.4659 11.198V11.198Z" fill="#0079FF"/>
</svg>
