<svg width="34" height="34" viewBox="0 0 34 34" fill="none" xmlns="http://www.w3.org/2000/svg">
<path d="M17 32C25.2843 32 32 25.2843 32 17C32 8.71573 25.2843 2 17 2C8.71573 2 2 8.71573 2 17C2 25.2843 8.71573 32 17 32Z" stroke="#FFCE42" stroke-width="3" stroke-linecap="round" stroke-linejoin="round"/>
<path d="M12.6348 12.4994C12.9874 11.4969 13.6835 10.6515 14.5997 10.1131C15.5159 9.57463 16.5931 9.3778 17.6405 9.55746C18.688 9.73712 19.638 10.2817 20.3224 11.0947C21.0068 11.9077 21.3813 12.9367 21.3798 13.9994C21.3798 16.9994 16.8798 18.4994 16.8798 18.4994" stroke="#FFCE42" stroke-width="3" stroke-linecap="round" stroke-linejoin="round"/>
<path d="M17 24.5H17.015" stroke="#FFCE42" stroke-width="3" stroke-linecap="round" stroke-linejoin="round"/>
</svg>
