<svg width="39" height="40" viewBox="0 0 39 40" fill="none" xmlns="http://www.w3.org/2000/svg">
<path d="M10.9999 37.9998H5.59998C4.6452 37.9998 3.72954 37.6205 3.05441 36.9454C2.37928 36.2702 2 35.3546 2 34.3998V21.7999C2 20.8451 2.37928 19.9294 3.05441 19.2543C3.72954 18.5792 4.6452 18.1999 5.59998 18.1999H10.9999M23.5999 14.5999V7.39997C23.5999 5.96781 23.0309 4.5943 22.0182 3.58161C21.0056 2.56892 19.6321 2 18.1999 2L10.9999 18.1999V37.9998H31.3038C32.172 38.0096 33.0145 37.7053 33.676 37.143C34.3376 36.5807 34.7736 35.7982 34.9038 34.9398L37.3878 18.7399C37.4661 18.2239 37.4313 17.6971 37.2858 17.196C37.1403 16.6948 36.8876 16.2312 36.5451 15.8374C36.2027 15.4436 35.7787 15.129 35.3026 14.9153C34.8265 14.7016 34.3096 14.594 33.7878 14.5999H23.5999Z" stroke="black" stroke-width="3" stroke-linecap="round" stroke-linejoin="round"/>
</svg>
