<svg width="1440" height="285" viewBox="0 0 1440 285" fill="none" xmlns="http://www.w3.org/2000/svg">
<path d="M1440 224L1410 213.3C1380 203 1320 181 1260 192C1200 203 1140 245 1080 245.3C1020 245 960 203 900 160C840 117 780 74.9999 720 85.2999C660 95.9999 600 160 540 202.7C480 245 420 267 360 277.3C300 288 240 288 180 272C120 256 60 224 30 208L0 192V-6.10352e-05H30C60 -6.10352e-05 120 -6.10352e-05 180 -6.10352e-05C240 -6.10352e-05 300 -6.10352e-05 360 -6.10352e-05C420 -6.10352e-05 480 -6.10352e-05 540 -6.10352e-05C600 -6.10352e-05 660 -6.10352e-05 720 -6.10352e-05C780 -6.10352e-05 840 -6.10352e-05 900 -6.10352e-05C960 -6.10352e-05 1020 -6.10352e-05 1080 -6.10352e-05C1140 -6.10352e-05 1200 -6.10352e-05 1260 -6.10352e-05C1320 -6.10352e-05 1380 -6.10352e-05 1410 -6.10352e-05H1440V224Z" fill="white"/>
</svg>
